<svg viewBox="0 0 52 52" xml:space="preserve" xmlns="http://www.w3.org/2000/svg"><path d="M9.999 10v32h32V10h-32zm30 30h-28V12h28v28z" fill="#00ff00" class="fill-0096e6"></path><path d="M32.999 16.5h-14c-1.65 0-3 1.35-3 3v14c0 1.65 1.35 3 3 3h14c1.66 0 3-1.35 3-3v-14c0-1.65-1.34-3-3-3zm1 17c0 .55-.45 1-1 1h-14c-.55 0-1-.45-1-1v-14c0-.55.45-1 1-1h14c.55 0 1 .45 1 1v14z" fill="#00ff00" class="fill-0096e6"></path><path d="M33.999 19.5v14c0 .55-.45 1-1 1h-14c-.55 0-1-.45-1-1v-14c0-.55.45-1 1-1h14c.55 0 1 .45 1 1z" fill="#D0E8F9" class="fill-d0e8f9"></path><path fill="#00ff00" d="M42 12.5h7v2h-7zM42 17.5h7v2h-7zM42 22.5h7v2h-7zM42 27.5h7v2h-7zM42 32.5h7v2h-7zM42 37.5h7v2h-7zM3 12.5h7v2H3zM3 17.5h7v2H3zM3 22.5h7v2H3zM3 27.5h7v2H3zM3 32.5h7v2H3zM3 37.5h7v2H3zM37.5 3h2v7h-2zM32.5 3h2v7h-2zM27.5 3h2v7h-2zM22.5 3h2v7h-2zM17.5 3h2v7h-2zM12.5 3h2v7h-2zM37.5 42h2v7h-2zM32.5 42h2v7h-2zM27.5 42h2v7h-2zM22.5 42h2v7h-2zM17.5 42h2v7h-2zM12.5 42h2v7h-2zM13.293 14.708l1.414-1.415 1.43 1.43-1.413 1.415zM35.863 37.277l1.414-1.414 1.43 1.43-1.414 1.414z" class="fill-0096e6"></path></svg>