<?xml version="1.0" standalone="no"?>
<!DOCTYPE svg PUBLIC "-//W3C//DTD SVG 20010904//EN"
 "http://www.w3.org/TR/2001/REC-SVG-20010904/DTD/svg10.dtd">
<svg version="1.0" xmlns="http://www.w3.org/2000/svg"
 width="2000.000000pt" height="1247.000000pt" viewBox="0 0 2000.000000 1247.000000"
 preserveAspectRatio="xMidYMid meet">

<g transform="translate(0.000000,1247.000000) scale(0.100000,-0.100000)"
fill="#000000" stroke="none">
<path d="M15436 11659 c-17 -84 -14 -89 91 -149 131 -75 410 -262 568 -380
550 -413 1034 -924 1412 -1490 514 -770 838 -1616 972 -2535 70 -480 80 -1061
25 -1545 -188 -1682 -1059 -3208 -2409 -4219 -224 -168 -684 -461 -817 -522
-26 -11 -28 -16 -28 -76 0 -34 3 -63 6 -63 4 0 52 24 108 54 1194 632 2171
1671 2739 2911 591 1292 721 2780 362 4163 -385 1479 -1319 2785 -2595 3627
-135 89 -410 255 -423 255 -2 0 -7 -14 -11 -31z"/>
<path d="M14486 8048 c-3 -57 -10 -296 -16 -533 -5 -236 -13 -494 -16 -572
l-6 -143 138 0 139 0 275 275 275 275 447 0 448 0 0 280 c0 164 -5 300 -11
330 -14 68 -62 129 -124 160 l-50 25 -747 3 -746 3 -6 -103z"/>
<path d="M15077 6972 l-257 -257 0 -208 0 -207 675 0 675 0 0 465 0 465 -418
0 -417 0 -258 -258z"/>
<path d="M14446 6588 c-3 -46 -8 -220 -11 -388 -3 -168 -8 -326 -11 -352 l-6
-48 136 0 136 0 0 435 0 435 -119 0 -119 0 -6 -82z"/>
<path d="M14820 5962 l0 -207 258 -258 257 -257 418 0 417 0 0 465 0 465 -675
0 -675 0 0 -208z"/>
<path d="M14416 5498 c-3 -95 -11 -357 -16 -583 -5 -225 -12 -452 -15 -503
l-5 -93 803 3 802 3 50 25 c62 31 110 92 124 160 6 30 11 166 11 330 l0 280
-448 0 -447 0 -275 275 -275 275 -151 0 -151 0 -7 -172z"/>
</g>
</svg>
